<svg height="300px" width="300px" fill="#ff6b6b" xmlns="http://www.w3.org/2000/svg" xmlns:xlink="http://www.w3.org/1999/xlink" version="1.1" x="0px" y="0px" viewBox="0 0 1024 1024" style="enable-background:new 0 0 1024 1024;" xml:space="preserve"><g><path d="M984,379.2c0.3-1.2,0.5-2.5,0.5-3.9c-0.5-34.8-28.6-62.6-63.4-62.9c-15.7-0.1-31.4,0.1-47.1,0.1   c-7.8-13.5-16.9-26.2-27.1-38.2c-32.5-38-78-65.8-126.5-77.8c-53.8-13.3-109.9-8-160.6,13.7c-46,19.7-85.1,54.8-111.4,97.2   c-1.1,1.8-2.2,3.6-3.2,5.6H111c-14.5,0-28.4,1-41.1,8.9C49.5,334.6,40,355.7,40,379v318.4c0,25.2,13,48.8,36.5,59.4   c15.2,6.9,30.5,5.9,47.5,5.7v35.4c0,10.6-0.4,20.8,7.8,29c7.6,7.6,16.8,8,26.7,8H218c6.1,0,12.4,0.4,18.4-0.6   c10.5-1.8,19.9-10.9,21.7-21.4c0.5-3.3,0.8-6.2,0.8-9.5V763h506v34.9c0,10.6,0,20.8,8.3,29c7.6,7.6,17.3,8,27.2,8H860   c6.1,0,12.4,0.4,18.4-0.6c10.5-1.8,19.4-10.9,21.2-21.4c0.5-3.3,0.4-6.2,0.4-9.5V763h7.8c4.3,0,8.6,0,12.9,0   c27.5-0.1,51.2-17.2,60.3-43.1c3.8-10.7,3-21.9,3-33V379.2z M322,646H164.5c-16.8,0-29.3-13.7-30-30c-0.7-16.2,14.3-30,30-30H322   c16.8,0,29.3,13.8,30,30C352.7,632.2,337.7,646,322,646z M322,510H164.5c-16.8,0-29.3-13.8-30-30c-0.7-16.2,14.3-30,30-30H322   c16.8,0,29.3,13.7,30,30C352.7,496.2,337.7,510,322,510z M847.1,458.5c-0.4,2.7-0.7,5.3-1.1,8c0.2-1.2,0.3-2.4,0.4-3.6   c-2.6,16.3-6.9,32.3-13,47.6c-5.2,11.8-11.4,23.1-18.7,33.8c-1.7,2.6-3.5,5.1-5.3,7.6c0.1-0.1,0.2-0.2,0.3-0.3   c-0.1,0.1-0.2,0.3-0.3,0.4c0,0,0,0.1-0.1,0.1c-0.2,0.3-0.4,0.5-0.6,0.8c-0.6,0.8-1.7,2.1-2.1,2.5c0,0,0,0-0.1,0.1c0,0,0,0,0,0   c0,0,0,0,0,0c-4.3,5.2-8.9,10.3-13.7,15.1c-4.9,4.9-10.1,9.6-15.5,14.1c-0.3,0.2-0.6,0.5-1,0.9c-0.3,0.2-0.7,0.5-1.2,0.9   c-2.8,2.1-5.6,4.1-8.5,6.1c-10.6,7.2-21.9,13.4-33.5,18.6c-15.5,6.2-31.6,10.6-48,13.1c-16.8,1.9-33.8,1.9-50.7,0   c-16.4-2.5-32.5-6.9-47.9-13.1c-11.7-5.2-23-11.4-33.6-18.6c-2.6-1.8-5.2-3.6-7.7-5.5c0.3,0.3,0.7,0.5,1,0.9   c-0.5-0.4-0.9-0.8-1.4-1.1c-0.2-0.1-0.4-0.3-0.5-0.4c-0.7-0.5-1.6-1.3-2.2-1.8c0,0,0,0,0,0c-0.1-0.1-0.2-0.2-0.3-0.3c0,0,0,0,0,0   l0,0c-5.3-4.4-10.3-9-15.1-13.8c-4.9-4.9-9.6-10.1-14.1-15.5c-0.2-0.3-0.6-0.6-1-1c-0.2-0.3-0.5-0.7-0.8-1.1   c-2.1-2.8-4.1-5.7-6.1-8.5c-7.2-10.7-13.4-22-18.7-33.8c-6.1-15.3-10.5-31.3-13-47.6c0.1,1.2,0.3,2.4,0.4,3.6   c-0.4-2.7-0.7-5.3-1.1-8c0.2,1.4,0.4,2.9,0.6,4.3c-1.9-16.9-1.9-33.8,0-50.7c2.6-16.5,7-32.6,13.2-48.1   c5.7-12.7,12.5-24.8,20.4-36.1c1.1-1.5,4.9-6.5,5-6.7c0,0,0,0,0,0c1.2-1.5,2.4-2.9,3.6-4.4c4.2-4.9,8.7-9.7,13.3-14.2   c4.6-4.5,9.5-8.9,14.5-13c0.3-0.3,0.8-0.7,1.4-1.1c-0.3,0.3-0.8,0.5-1.2,0.9c1-0.7,1.9-1.5,2.9-2.2c2.7-2,5.5-3.9,8.3-5.8   c10.2-6.8,21.1-12.7,32.3-17.7c15.5-6.2,31.6-10.5,48-13.1c16.8-1.9,33.6-1.9,50.4,0c16.5,2.6,32.5,6.9,48,13.1   c11.2,5,22.1,10.9,32.3,17.7c2.6,1.7,5.1,3.5,7.6,5.3c0.2,0.2,0.4,0.3,0.7,0.5c0.4,0.3,0.8,0.6,1.2,0.9c-0.2-0.1-0.3-0.2-0.5-0.3   c0.8,0.6,1.8,1.4,2.4,1.8c5,4.1,9.9,8.5,14.5,13c4.6,4.5,9.1,9.3,13.3,14.2c2,2.3,3.8,4.6,5.7,7c-1.4-1.7-2-2.5-2.2-2.6   c0.2,0.4,4,5.2,5,6.6c7.9,11.4,14.7,23.5,20.4,36.1c6.2,15.5,10.6,31.6,13.2,48.2c0.9,8.4,1.4,16.8,1.4,25.2c0,8.5-0.5,17-1.5,25.5   C846.7,461.3,846.9,459.9,847.1,458.5z"/><path d="M517.8,437.4c0.4,59.6,38.1,112.7,93.8,133.4c54.7,20.3,119.8,2.7,156.9-42.4c19-23.1,30.4-50.8,32.8-80.7   c2.4-28.9-4.8-58.8-19.9-83.6c-31-51.3-91.8-77.5-150.4-65.9c-56.3,11.1-102.5,58.9-111.2,115.7   C518.6,421.6,517.8,429.6,517.8,437.4"/></g></svg>